<?xml version="1.0" encoding="UTF-8"?>
<svg xmlns="http://www.w3.org/2000/svg" xmlns:xlink="http://www.w3.org/1999/xlink" width="436pt" height="338pt" viewBox="0 0 436 338" version="1.1">
<g id="surface1">
<path style=" stroke:none;fill-rule:evenodd;fill:rgb(0%,45.498657%,68.199158%);fill-opacity:1;" d="M 235.933594 260.898438 C 241.714844 260.898438 246.402344 265.585938 246.402344 271.367188 C 246.402344 277.148438 241.714844 281.835938 235.933594 281.835938 C 230.152344 281.835938 225.46875 277.148438 225.46875 271.367188 C 225.46875 265.585938 230.152344 260.898438 235.933594 260.898438 Z M 377.039063 299.347656 C 377.574219 281.789063 405.78125 280.1875 422.132813 290.089844 L 416.09375 301.964844 C 410.460938 298.050781 405.585938 296.222656 399.382813 296.730469 C 393.5 297.210938 392.867188 303.613281 402.402344 303.371094 C 417.300781 302.996094 425.335938 310.824219 424.546875 320.886719 C 423.269531 337.132813 397.679688 343.78125 375.230469 329.542969 L 383.480469 317.464844 C 389.722656 321.050781 395.941406 324.253906 402.203125 323.503906 C 408.699219 322.726563 411.976563 317.484375 400.390625 316.257813 C 384.609375 314.582031 376.730469 309.542969 377.039063 299.347656 Z M 253.976563 337.34375 L 253.976563 287.316406 L 272.191406 287.316406 L 272.191406 294.335938 C 279.257813 282.613281 306.734375 282.4375 306.738281 300.746094 L 306.742188 337.34375 L 288.582031 337.34375 L 288.378906 312.191406 C 288.300781 302.132813 284.640625 301.183594 279.707031 301.742188 C 275.617188 302.203125 271.949219 303.6875 271.949219 312.191406 L 271.949219 337.34375 Z M 226.472656 286.417969 L 245.394531 286.417969 L 245.394531 337.34375 L 226.472656 337.34375 Z M 134.210938 337.34375 L 134.210938 287.316406 L 152.421875 287.316406 L 152.421875 294.335938 C 157.878906 285.230469 178.914063 280.789063 184.953125 294.910156 C 193.539063 282.078125 218.652344 282.664063 218.640625 300.097656 L 218.621094 337.34375 L 199.316406 337.34375 L 199.316406 309.976563 C 199.316406 302.621094 198.0625 301.917969 191.882813 302.191406 C 186.828125 302.417969 185.675781 306.609375 185.652344 311.371094 L 185.53125 337.34375 L 167.371094 337.34375 L 167.171875 312.191406 C 167.089844 302.132813 164.882813 301.273438 159.9375 301.742188 C 155.039063 302.203125 152.902344 302.882813 152.902344 312.191406 L 152.902344 337.34375 Z M 101.371094 283.601563 C 116.210938 283.601563 128.242188 295.632813 128.242188 310.472656 C 128.242188 325.316406 116.210938 337.34375 101.371094 337.34375 C 86.527344 337.34375 74.496094 325.316406 74.496094 310.472656 C 74.496094 295.632813 86.527344 283.601563 101.371094 283.601563 Z M 101.371094 300.910156 C 106.652344 300.910156 110.933594 305.191406 110.933594 310.472656 C 110.933594 315.753906 106.652344 320.035156 101.371094 320.035156 C 96.089844 320.035156 91.808594 315.753906 91.808594 310.472656 C 91.808594 305.191406 96.089844 300.910156 101.371094 300.910156 Z M 0.652344 337.34375 L 0.652344 266.503906 L 21.71875 266.503906 C 28.402344 266.503906 34.121094 266.867188 38.847656 267.59375 C 43.574219 268.320313 47.4375 269.445313 50.394531 270.964844 C 56.671875 274.183594 61.464844 278.464844 64.824219 283.78125 C 68.164063 289.101563 69.835938 295.160156 69.835938 301.96875 C 69.835938 308.753906 68.164063 314.785156 64.839844 320.070313 C 61.515625 325.355469 56.707031 329.632813 50.394531 332.886719 C 47.339844 334.4375 43.4375 335.578125 38.730469 336.289063 C 34.023438 337 27.691406 337.34375 19.792969 337.34375 Z M 21.683594 318.632813 L 21.683594 285.21875 L 30.285156 285.21875 C 33.015625 285.21875 35.351563 285.390625 37.28125 285.730469 C 39.214844 286.074219 40.792969 286.605469 42 287.320313 C 44.5625 288.839844 46.519531 290.859375 47.894531 293.367188 C 49.257813 295.875 49.941406 298.734375 49.941406 301.945313 C 49.941406 305.148438 49.257813 307.992188 47.898438 310.484375 C 46.542969 312.976563 44.578125 314.996094 42 316.53125 C 40.75 317.261719 39.15625 317.800781 37.234375 318.132813 C 35.3125 318.46875 32.726563 318.632813 29.5 318.632813 Z M 338.628906 283.601563 C 353.46875 283.601563 365.5 295.632813 365.5 310.472656 C 365.5 325.316406 353.46875 337.34375 338.628906 337.34375 C 323.785156 337.34375 311.753906 325.316406 311.753906 310.472656 C 311.753906 295.632813 323.785156 283.601563 338.628906 283.601563 Z M 338.628906 300.910156 C 343.90625 300.910156 348.1875 305.191406 348.1875 310.472656 C 348.1875 315.753906 343.90625 320.035156 338.628906 320.035156 C 333.347656 320.035156 329.066406 315.753906 329.066406 310.472656 C 329.066406 305.191406 333.347656 300.910156 338.628906 300.910156 Z M 371.101563 261.015625 C 375.246094 261.015625 378.808594 263.492188 380.390625 267.046875 C 381.609375 269.785156 381.707031 273.269531 380.96875 276.179688 C 379.832031 280.660156 376.054688 285.039063 368.089844 289.199219 L 365.894531 286.226563 C 367.449219 284.925781 369.050781 283.585938 369.699219 282.605469 C 370.855469 280.851563 369.34375 281.285156 368.070313 280.886719 C 363.9375 279.597656 360.9375 275.738281 360.9375 271.183594 C 360.9375 265.566406 365.488281 261.015625 371.101563 261.015625 "/>
<path style=" stroke:none;fill-rule:nonzero;fill:rgb(0%,45.498657%,68.199158%);fill-opacity:1;" d="M 430.933594 285.941406 C 431.671875 285.941406 432.398438 286.128906 433.105469 286.507813 C 433.808594 286.890625 434.359375 287.433594 434.753906 288.144531 C 435.148438 288.851563 435.347656 289.589844 435.347656 290.359375 C 435.347656 291.121094 435.152344 291.851563 434.761719 292.554688 C 434.375 293.257813 433.828125 293.804688 433.128906 294.191406 C 432.429688 294.582031 431.699219 294.773438 430.933594 294.773438 C 430.167969 294.773438 429.433594 294.582031 428.734375 294.191406 C 428.03125 293.804688 427.488281 293.257813 427.097656 292.554688 C 426.703125 291.851563 426.511719 291.121094 426.511719 290.359375 C 426.511719 289.589844 426.710938 288.851563 427.105469 288.144531 C 427.5 287.433594 428.050781 286.890625 428.761719 286.507813 C 429.464844 286.128906 430.191406 285.941406 430.933594 285.941406 Z M 430.933594 286.671875 C 430.3125 286.671875 429.707031 286.832031 429.121094 287.148438 C 428.53125 287.464844 428.070313 287.921875 427.742188 288.511719 C 427.410156 289.101563 427.242188 289.71875 427.242188 290.359375 C 427.242188 290.996094 427.40625 291.605469 427.734375 292.1875 C 428.058594 292.773438 428.515625 293.226563 429.101563 293.554688 C 429.683594 293.878906 430.296875 294.042969 430.933594 294.042969 C 431.566406 294.042969 432.179688 293.878906 432.765625 293.554688 C 433.351563 293.226563 433.804688 292.773438 434.128906 292.1875 C 434.449219 291.605469 434.613281 290.996094 434.613281 290.359375 C 434.613281 289.71875 434.449219 289.101563 434.121094 288.511719 C 433.789063 287.921875 433.328125 287.464844 432.742188 287.148438 C 432.152344 286.832031 431.546875 286.671875 430.933594 286.671875 Z M 428.992188 292.800781 L 428.992188 288.046875 L 430.625 288.046875 C 431.1875 288.046875 431.589844 288.089844 431.839844 288.175781 C 432.089844 288.265625 432.285156 288.417969 432.4375 288.636719 C 432.585938 288.855469 432.660156 289.089844 432.660156 289.335938 C 432.660156 289.683594 432.535156 289.984375 432.285156 290.242188 C 432.039063 290.5 431.710938 290.644531 431.300781 290.675781 C 431.46875 290.746094 431.605469 290.828125 431.703125 290.925781 C 431.894531 291.113281 432.128906 291.429688 432.40625 291.871094 L 432.984375 292.800781 L 432.050781 292.800781 L 431.628906 292.050781 C 431.296875 291.464844 431.03125 291.09375 430.824219 290.945313 C 430.6875 290.835938 430.480469 290.78125 430.210938 290.78125 L 429.761719 290.78125 L 429.761719 292.800781 Z M 429.761719 290.125 L 430.691406 290.125 C 431.136719 290.125 431.4375 290.058594 431.601563 289.925781 C 431.761719 289.792969 431.84375 289.617188 431.84375 289.398438 C 431.84375 289.257813 431.804688 289.132813 431.726563 289.019531 C 431.648438 288.910156 431.539063 288.828125 431.402344 288.773438 C 431.265625 288.71875 431.007813 288.691406 430.632813 288.691406 L 429.761719 288.691406 L 429.761719 290.125 "/>
<path style=" stroke:none;fill-rule:evenodd;fill:rgb(90.59906%,11.799622%,16.099548%);fill-opacity:1;" d="M 181.207031 68.511719 L 247.234375 2.714844 C 249.996094 -0.0390625 254.507813 -0.03125 257.257813 2.730469 L 319.554688 65.242188 C 322.308594 68.003906 322.300781 72.515625 319.535156 75.269531 L 253.507813 141.066406 Z M 240.371094 56.835938 C 247.304688 49.925781 258.527344 49.945313 265.433594 56.878906 C 272.34375 63.8125 272.324219 75.03125 265.390625 81.941406 C 258.460938 88.847656 247.238281 88.828125 240.328125 81.898438 C 233.421875 74.964844 233.441406 63.742188 240.371094 56.835938 "/>
<path style=" stroke:none;fill-rule:evenodd;fill:rgb(0%,45.498657%,68.199158%);fill-opacity:1;" d="M 190.492188 132.308594 C 197.425781 125.402344 208.648438 125.421875 215.554688 132.355469 C 222.464844 139.285156 222.445313 150.507813 215.511719 157.414063 C 208.578125 164.324219 197.359375 164.304688 190.449219 157.371094 C 183.539063 150.4375 183.5625 139.21875 190.492188 132.308594 Z M 138.613281 132.46875 C 145.546875 125.5625 156.769531 125.582031 163.675781 132.515625 C 170.585938 139.445313 170.566406 150.667969 163.632813 157.578125 C 156.699219 164.484375 145.480469 164.464844 138.570313 157.53125 C 131.664063 150.601563 131.683594 139.378906 138.613281 132.46875 Z M 110.410156 139.0625 L 176.4375 73.265625 L 248.738281 145.820313 L 182.710938 211.617188 C 179.949219 214.371094 175.4375 214.363281 172.6875 211.601563 L 110.390625 149.085938 C 107.640625 146.324219 107.648438 141.8125 110.410156 139.0625 "/>
<path style=" stroke:none;fill-rule:nonzero;fill:rgb(0%,45.498657%,68.199158%);fill-opacity:1;" d="M 205.664063 213.996094 L 205.664063 205.140625 L 202.292969 205.140625 L 202.292969 203.59375 L 210.789063 203.59375 L 210.789063 205.140625 L 207.398438 205.140625 L 207.398438 213.996094 Z M 211.953125 213.996094 L 211.953125 203.59375 L 214.507813 203.59375 L 217.132813 211.902344 L 219.671875 203.59375 L 222.179688 203.59375 L 222.179688 213.996094 L 220.59375 213.996094 L 220.59375 205.265625 L 217.914063 213.996094 L 216.34375 213.996094 L 213.550781 205.140625 L 213.550781 213.996094 L 211.953125 213.996094 "/>
</g>
</svg>
